<svg xmlns="http://www.w3.org/2000/svg" viewBox="0 0 126.1 126.1"><path fill="#F8D24E" d="M92.8 57c6.5-17.4-6.9-27-15.8-33.2-1.7-1.3-3.4-2.5-4.8-3.6-2.5-2.1-4.3-4.8-5.2-7.8s-1-6.3-.1-9.4c.1-.3.1-.7 0-1-.1-.3-.3-.6-.5-.8-.4-.2-.7-.4-1-.4s-.7 0-1 .1c-3 1.2-5.8 2.8-8.3 4.9-2.4 1.8-4.3 4.1-5.6 6.8-1.3 2.7-2 5.6-2 8.5-1.7 1.3-3.2 2.8-4.4 4.6-2.3 3.1-3.4 6.9-3.3 10.7-2.7 2.5-4.8 5.6-5.9 9.1-1.1 3.5-1.3 7.2-.6 10.8-1.1.6-1.9 1.6-2.4 2.8-.5 1.2-.5 2.4-.2 3.7.3 1.2 1.1 2.3 2.1 3 1 .8 2.2 1.2 3.5 1.1h.1v9.9c0 1 .4 2 1.1 2.7.7.7 1.7 1.1 2.7 1.1h3l4.9 41.6c.1.9.5 1.8 1.2 2.4.7.6 1.6 1 2.6 1h20.2c.9 0 1.9-.3 2.6-1 .7-.6 1.2-1.5 1.3-2.4l4.9-41.6h3c1 0 2-.4 2.7-1.1s1.1-1.7 1.1-2.7v-9.9h.1c1.5 0 3-.6 4.1-1.7 1.1-1.1 1.7-2.5 1.7-4.1 0-.8-.1-1.5-.4-2.2-.4-.8-.8-1.4-1.4-1.9zM49.1 25.4c2.5 9.1 11.9 12.7 20.6 15.9.2.1.5.2.8.3.3 0 .5 0 .8-.1.3-.1.5-.2.7-.4s.3-.4.4-.7c.1-.3.1-.5.1-.8 0-.3-.1-.5-.2-.8-.1-.2-.3-.4-.5-.6-.2-.2-.5-.3-.7-.3-9.3-3.5-18.1-6.7-18.7-16-.2-2.6.3-5.1 1.4-7.4 1.1-2.3 2.7-4.4 4.8-5.9 1.3-1.1 2.7-2 4.2-2.8-.1 1.2-.1 2.3 0 3.5.2 2.7.9 5.3 2.2 7.6 1.2 2.4 2.9 4.5 5 6.2 1.4 1.2 3.2 2.4 5.1 3.7 4.5 3.2 9.6 6.7 12.8 11.5 1.7 2.5 2.8 5.3 3.1 8.3.3 3-.1 6-1.3 8.8H82c-15.5 0-33.3-4.2-36.9-16.1-.7-2.4-.7-5 0-7.5.8-2.4 2.2-4.6 4-6.4zm14 57.4 5.7 5.6-5.7 5.6-5.7-5.7 5.7-5.5zm13 14.7-4.7 4.6-5.7-5.6 5.7-5.6 4.9 4.9-.2 1.7zm-13 12.9-5.7-5.6 5.7-5.6 5.7 5.6-5.7 5.6zm-2.6-13.8-5.7 5.6-4.8-4.7-.2-1.7 4.9-4.9 5.8 5.7zm-8.4 8.2-1.1 1.1-.3-2.6 1.4 1.5zm-.6 5.8 3.2-3.2 6.2 6.2c0 .1.1.2.1.4h-9.2l-.3-3.4zm19.9-3.2 3.2 3.2-.4 3.4h-9.5l6.7-6.6zm3.7-1.5-1.1-1.1 1.4-1.4-.3 2.5zm1.7-14.7L74 88.4l3.6-3.6-.8 6.4zm-5.4-5.4L66 80.5h10.8l-5.4 5.3zm-16.6 0-5.4-5.3h10.8l-5.4 5.3zm18.3 35.9H52.9v-.1l-.5-4h21.4l-.5 4v.1h-.2zm15.7-58.6h-5.9c-.3 0-.5 0-.8.1-.2.1-.5.2-.7.4-.2.2-.3.4-.4.6-.1.2-.2.5-.2.7 0 .3.1.5.2.7.1.2.3.4.4.6.2.2.4.3.7.4.2.1.5.1.8.1H85v10H41.2v-10h33.7c.5 0 .9-.3 1.2-.6.3-.3.5-.8.5-1.2s-.2-.9-.5-1.2c-.3-.3-.7-.5-1.2-.6H37.4c-.3 0-.6 0-.9-.1-.3-.1-.5-.2-.7-.4s-.4-.4-.5-.7c-.1-.3-.2-.6-.2-.8 0-.3.1-.6.2-.8s.3-.5.5-.7c.2-.2.5-.3.7-.4.3-.1.6-.1.9-.1h3.9c.5 0 .9-.3 1.2-.6.3-.3.5-.8.5-1.2 0-.5-.2-.9-.5-1.2s-.7-.5-1.2-.6h-3.4c-.5-2.6-.4-5.2.2-7.7.6-2.5 1.8-4.9 3.5-6.9 1.2 3.7 4.3 8.7 11.9 12.7 7.2 3.7 16.7 5.6 28.3 5.6h6.8c.3 0 .6 0 .9.1.3.1.5.2.7.4.2.2.4.4.5.7.1.3.2.6.2.8 0 .3-.1.6-.2.8-.1.3-.3.5-.5.7s-.5.3-.7.4c-.3.1-.6.1-.9.1h.2z"/></svg>