<?xml version="1.0" encoding="utf-8"?>
<svg version="1.1" xmlns="http://www.w3.org/2000/svg" viewBox="0 0 126.1 126.1">
<path fill="#F8D24E" d="M92.8,57C99.3,39.6,85.9,30,77,23.8c-1.7-1.3-3.4-2.5-4.8-3.6c-2.5-2.1-4.3-4.8-5.2-7.8s-1-6.3-0.1-9.4
	c0.1-0.3,0.1-0.7,0-1c-0.1-0.3-0.3-0.6-0.5-0.8C66,1,65.7,0.8,65.4,0.8s-0.7,0-1,0.1c-3,1.2-5.8,2.8-8.3,4.9
	c-2.4,1.8-4.3,4.1-5.6,6.8c-1.3,2.7-2,5.6-2,8.5c-1.7,1.3-3.2,2.8-4.4,4.6c-2.3,3.1-3.4,6.9-3.3,10.7c-2.7,2.5-4.8,5.6-5.9,9.1
	c-1.1,3.5-1.3,7.2-0.6,10.8c-1.1,0.6-1.9,1.6-2.4,2.8c-0.5,1.2-0.5,2.4-0.2,3.7c0.3,1.2,1.1,2.3,2.1,3c1,0.8,2.2,1.2,3.5,1.1h0.1
	v9.9c0,1,0.4,2,1.1,2.7c0.7,0.7,1.7,1.1,2.7,1.1h3l4.9,41.6c0.1,0.9,0.5,1.8,1.2,2.4c0.7,0.6,1.6,1,2.6,1h20.2c0.9,0,1.9-0.3,2.6-1
	c0.7-0.6,1.2-1.5,1.3-2.4l4.9-41.6h3c1,0,2-0.4,2.7-1.1s1.1-1.7,1.1-2.7v-9.9h0.1c1.5,0,3-0.6,4.1-1.7c1.1-1.1,1.7-2.5,1.7-4.1
	c0-0.8-0.1-1.5-0.4-2.2C93.8,58.1,93.4,57.5,92.8,57L92.8,57z M49.1,25.4c2.5,9.1,11.9,12.7,20.6,15.9c0.2,0.1,0.5,0.2,0.8,0.3
	c0.3,0,0.5,0,0.8-0.1c0.3-0.1,0.5-0.2,0.7-0.4s0.3-0.4,0.4-0.7c0.1-0.3,0.1-0.5,0.1-0.8c0-0.3-0.1-0.5-0.2-0.8
	c-0.1-0.2-0.3-0.4-0.5-0.6c-0.2-0.2-0.5-0.3-0.7-0.3c-9.3-3.5-18.1-6.7-18.7-16c-0.2-2.6,0.3-5.1,1.4-7.4c1.1-2.3,2.7-4.4,4.8-5.9
	c1.3-1.1,2.7-2,4.2-2.8c-0.1,1.2-0.1,2.3,0,3.5c0.2,2.7,0.9,5.3,2.2,7.6c1.2,2.4,2.9,4.5,5,6.2c1.4,1.2,3.2,2.4,5.1,3.7
	c4.5,3.2,9.6,6.7,12.8,11.5c1.7,2.5,2.8,5.3,3.1,8.3c0.3,3-0.1,6-1.3,8.8h-0.7H82c-15.5,0-33.3-4.2-36.9-16.1c-0.7-2.4-0.7-5,0-7.5
	C45.9,29.4,47.3,27.2,49.1,25.4L49.1,25.4z M63.1,82.8l5.7,5.6L63.1,94l-5.7-5.7L63.1,82.8z M76.1,97.5l-4.7,4.6l-5.7-5.6l5.7-5.6
	l4.9,4.9L76.1,97.5z M63.1,110.4l-5.7-5.6l5.7-5.6l5.7,5.6L63.1,110.4z M60.5,96.6l-5.7,5.6L50,97.5l-0.2-1.7l4.9-4.9L60.5,96.6z
	 M52.1,104.8l-1.1,1.1l-0.3-2.6L52.1,104.8z M51.5,110.6l3.2-3.2l6.2,6.2c0,0.1,0.1,0.2,0.1,0.4h-9.2L51.5,110.6z M71.4,107.4
	l3.2,3.2l-0.4,3.4h-9.5L71.4,107.4z M75.1,105.9l-1.1-1.1l1.4-1.4L75.1,105.9z M76.8,91.2L74,88.4l3.6-3.6L76.8,91.2z M71.4,85.8
	L66,80.5h10.8L71.4,85.8z M54.8,85.8l-5.4-5.3h10.8L54.8,85.8z M73.1,121.7H53c0,0-0.1,0-0.1,0c0,0,0,0,0-0.1l-0.5-4h21.4l-0.5,4
	c0,0,0,0.1,0,0.1C73.2,121.7,73.2,121.7,73.1,121.7L73.1,121.7z M88.8,63.1h-5.9c-0.3,0-0.5,0-0.8,0.1c-0.2,0.1-0.5,0.2-0.7,0.4
	c-0.2,0.2-0.3,0.4-0.4,0.6c-0.1,0.2-0.2,0.5-0.2,0.7c0,0.3,0.1,0.5,0.2,0.7c0.1,0.2,0.3,0.4,0.4,0.6c0.2,0.2,0.4,0.3,0.7,0.4
	c0.2,0.1,0.5,0.1,0.8,0.1h2.1v9.9c0,0,0,0.1,0,0.1c0,0-0.1,0-0.1,0H41.3c0,0-0.1,0-0.1,0c0,0,0-0.1,0-0.1v-9.9h33.7
	c0.5,0,0.9-0.3,1.2-0.6c0.3-0.3,0.5-0.8,0.5-1.2s-0.2-0.9-0.5-1.2c-0.3-0.3-0.7-0.5-1.2-0.6H37.4c-0.3,0-0.6,0-0.9-0.1
	c-0.3-0.1-0.5-0.2-0.7-0.4s-0.4-0.4-0.5-0.7c-0.1-0.3-0.2-0.6-0.2-0.8c0-0.3,0.1-0.6,0.2-0.8s0.3-0.5,0.5-0.7
	c0.2-0.2,0.5-0.3,0.7-0.4c0.3-0.1,0.6-0.1,0.9-0.1h3.9c0.5,0,0.9-0.3,1.2-0.6c0.3-0.3,0.5-0.8,0.5-1.2c0-0.5-0.2-0.9-0.5-1.2
	s-0.7-0.5-1.2-0.6h-3.4c-0.5-2.6-0.4-5.2,0.2-7.7c0.6-2.5,1.8-4.9,3.5-6.9c1.2,3.7,4.3,8.7,11.9,12.7c7.2,3.7,16.7,5.6,28.3,5.6h6.8
	c0.3,0,0.6,0,0.9,0.1c0.3,0.1,0.5,0.2,0.7,0.4c0.2,0.2,0.4,0.4,0.5,0.7c0.1,0.3,0.2,0.6,0.2,0.8c0,0.3-0.1,0.6-0.2,0.8
	c-0.1,0.3-0.3,0.5-0.5,0.7s-0.5,0.3-0.7,0.4c-0.3,0.1-0.6,0.1-0.9,0.1H88.8z"/>
</svg>
